<svg width="55" height="55" viewBox="0 0 55 55" fill="none" xmlns="http://www.w3.org/2000/svg">
<rect width="55" height="55" rx="12" fill="#BB0000"/>
<path d="M35.1033 15.235C32.7703 14.7464 30.3887 14.5 28 14.5C20.8049 14.5 14.1479 16.705 8.74037 20.4475C8.59297 20.5524 8.47119 20.6865 8.38344 20.8406C8.29569 20.9946 8.24405 21.165 8.23207 21.3398C8.2201 21.5147 8.24807 21.69 8.31407 21.8536C8.38007 22.0172 8.48252 22.1652 8.61438 22.2875C8.84432 22.5018 9.14635 22.6319 9.46718 22.6547C9.788 22.6776 10.107 22.5918 10.3679 22.4125C15.5003 18.8853 21.6709 16.9911 28 17C29.6555 17 31.276 17.1233 32.8615 17.37L35.1033 15.235ZM28 22C22.9994 22 18.34 23.4 14.4392 25.815C14.2832 25.9153 14.1527 26.0476 14.0574 26.2023C13.9621 26.3569 13.9044 26.5299 13.8886 26.7086C13.8727 26.8872 13.8991 27.067 13.9658 27.2347C14.0324 27.4024 14.1377 27.5537 14.2739 27.6775C14.4975 27.8854 14.7888 28.0147 15.0997 28.0443C15.4107 28.0738 15.723 28.0018 15.9854 27.84C18.7697 26.1408 21.9178 25.056 25.1991 24.665L28 22ZM34.8145 25.51L36.8751 23.5475C38.5324 24.1508 40.0943 24.9067 41.5608 25.815C41.716 25.9159 41.8457 26.0485 41.9404 26.2031C42.0351 26.3577 42.0925 26.5304 42.1083 26.7088C42.1242 26.8872 42.0981 27.0667 42.032 27.2342C41.9659 27.4018 41.8614 27.5532 41.7261 27.6775C41.5025 27.8854 41.2112 28.0147 40.9003 28.0443C40.5893 28.0738 40.277 28.0018 40.0146 27.84C38.3948 26.8533 36.6478 26.0701 34.8171 25.51H34.8145ZM28 32L30.4491 29.6675C32.2899 29.9205 34.0748 30.4585 35.7332 31.26C36.4814 31.6225 36.589 32.57 35.9957 33.135L35.9564 33.1725C35.7473 33.3649 35.4801 33.4901 35.1924 33.5305C34.9047 33.5708 34.611 33.5243 34.3525 33.3975C32.3746 32.4765 30.2017 31.9984 28 32ZM40.8756 19.7375L42.8365 17.87C44.387 18.6217 45.8614 19.48 47.2596 20.445C47.4073 20.5501 47.5292 20.6845 47.617 20.8388C47.7048 20.9932 47.7564 21.1639 47.7681 21.3391C47.7798 21.5143 47.7515 21.6899 47.685 21.8536C47.6185 22.0174 47.5155 22.1654 47.383 22.2875C47.1531 22.5018 46.851 22.6319 46.5302 22.6547C46.2094 22.6776 45.8904 22.5918 45.6295 22.4125C44.134 21.3844 42.5427 20.489 40.8756 19.7375ZM30.6775 36.45C31.3023 36.8 31.297 37.61 30.7825 38.1L28.9266 39.865C28.6805 40.0993 28.3467 40.231 27.9987 40.231C27.6507 40.231 27.3169 40.0993 27.0707 39.865L25.2149 38.0975C24.703 37.61 24.6978 36.8025 25.3199 36.4475C26.1313 35.99 27.0571 35.7491 28 35.75C28.9818 35.75 29.8953 36.005 30.6775 36.45ZM42.1094 11.6875C42.3704 11.4389 42.7245 11.2992 43.0937 11.2992C43.463 11.2992 43.8171 11.4389 44.0781 11.6875C44.3392 11.9361 44.4859 12.2734 44.4859 12.625C44.4859 12.9766 44.3392 13.3139 44.0781 13.5625L15.8594 40.4375C15.7301 40.5606 15.5766 40.6583 15.4077 40.7249C15.2388 40.7915 15.0578 40.8258 14.875 40.8258C14.6922 40.8258 14.5112 40.7915 14.3423 40.7249C14.1734 40.6583 14.0199 40.5606 13.8906 40.4375C13.7614 40.3144 13.6588 40.1682 13.5889 40.0074C13.5189 39.8465 13.4829 39.6741 13.4829 39.5C13.4829 39.3259 13.5189 39.1535 13.5889 38.9926C13.6588 38.8318 13.7614 38.6856 13.8906 38.5625L42.1094 11.6875Z" fill="#E5FAFF"/>
</svg>
