<svg width="172" height="62" viewBox="0 0 172 62" fill="none" xmlns="http://www.w3.org/2000/svg">
<ellipse cx="120.5" cy="32" rx="14.5" ry="16" fill="#009DFF" fill-opacity="0.42"/>
<circle cx="121" cy="32" r="3" fill="#BB0000"/>
<path d="M2.64 46.792H6.24V17.704H2.64V15.496H27.408V23.56H23.952V17.848H10.368V30.568H19.872V26.728H22.752V36.76H19.872V32.92H10.368V46.648H24.432V40.504H27.888V49H2.64V46.792ZM33.39 46.792H36.99V17.704H33.39V15.496H41.838L51.63 36.232H51.774L62.046 15.496H69.966V17.704H66.366V46.792H69.966V49H58.638V46.792H62.238V20.344H62.046L59.934 25L50.718 43.384L42.51 26.2L39.822 20.344H39.63V46.792H43.23V49H33.39V46.792ZM89.0254 49.576C86.9134 49.576 84.9934 49.176 83.2654 48.376C81.5374 47.576 80.0654 46.424 78.8494 44.92C77.6334 43.416 76.6894 41.592 76.0174 39.448C75.3454 37.304 75.0094 34.904 75.0094 32.248C75.0094 29.464 75.3454 27 76.0174 24.856C76.6894 22.712 77.6174 20.904 78.8014 19.432C80.0174 17.96 81.4734 16.84 83.1694 16.072C84.8654 15.304 86.7374 14.92 88.7854 14.92C90.8654 14.92 92.5934 15.272 93.9694 15.976C95.3774 16.648 96.3054 17.496 96.7534 18.52H96.9454V15.496H100.401V25.288H96.9454V22.792C96.9454 21.192 96.2414 19.912 94.8334 18.952C93.4254 17.96 91.5854 17.464 89.3134 17.464C87.6174 17.464 86.1454 17.784 84.8974 18.424C83.6814 19.032 82.6734 19.88 81.8734 20.968C81.1054 22.024 80.5294 23.272 80.1454 24.712C79.7934 26.12 79.6174 27.608 79.6174 29.176V34.984C79.6174 36.744 79.8414 38.328 80.2894 39.736C80.7694 41.144 81.4414 42.36 82.3054 43.384C83.2014 44.376 84.2894 45.144 85.5694 45.688C86.8494 46.232 88.3054 46.504 89.9374 46.504C92.2094 46.504 94.1134 45.912 95.6494 44.728C97.1854 43.544 98.3054 42.04 99.0094 40.216L100.881 41.128C100.593 42.056 100.129 43.016 99.4894 44.008C98.8494 45 98.0334 45.912 97.0414 46.744C96.0814 47.576 94.9294 48.264 93.5854 48.808C92.2414 49.32 90.7214 49.576 89.0254 49.576ZM120.356 47.032C121.988 47.032 123.428 46.744 124.676 46.168C125.956 45.56 127.028 44.728 127.892 43.672C128.756 42.584 129.412 41.304 129.86 39.832C130.308 38.36 130.532 36.744 130.532 34.984V29.512C130.532 27.752 130.308 26.136 129.86 24.664C129.412 23.192 128.756 21.928 127.892 20.872C127.028 19.784 125.956 18.952 124.676 18.376C123.428 17.768 121.988 17.464 120.356 17.464C118.724 17.464 117.268 17.768 115.988 18.376C114.74 18.952 113.684 19.784 112.82 20.872C111.956 21.928 111.3 23.192 110.852 24.664C110.404 26.136 110.18 27.752 110.18 29.512V34.984C110.18 36.744 110.404 38.36 110.852 39.832C111.3 41.304 111.956 42.584 112.82 43.672C113.684 44.728 114.74 45.56 115.988 46.168C117.268 46.744 118.724 47.032 120.356 47.032ZM120.356 49.576C118.148 49.576 116.132 49.176 114.308 48.376C112.484 47.576 110.916 46.424 109.604 44.92C108.324 43.416 107.332 41.608 106.628 39.496C105.924 37.352 105.572 34.936 105.572 32.248C105.572 29.56 105.924 27.16 106.628 25.048C107.332 22.904 108.324 21.08 109.604 19.576C110.916 18.072 112.484 16.92 114.308 16.12C116.132 15.32 118.148 14.92 120.356 14.92C122.564 14.92 124.58 15.32 126.404 16.12C128.228 16.92 129.78 18.072 131.06 19.576C132.372 21.08 133.38 22.904 134.084 25.048C134.788 27.16 135.14 29.56 135.14 32.248C135.14 34.936 134.788 37.352 134.084 39.496C133.38 41.608 132.372 43.416 131.06 44.92C129.78 46.424 128.228 47.576 126.404 48.376C124.58 49.176 122.564 49.576 120.356 49.576ZM140.171 46.792H143.771V17.704H140.171V15.496H154.187C156.395 15.496 158.411 15.848 160.235 16.552C162.059 17.224 163.611 18.264 164.891 19.672C166.203 21.048 167.211 22.792 167.915 24.904C168.651 26.984 169.019 29.432 169.019 32.248C169.019 35.064 168.651 37.528 167.915 39.64C167.211 41.72 166.203 43.464 164.891 44.872C163.611 46.248 162.059 47.288 160.235 47.992C158.411 48.664 156.395 49 154.187 49H140.171V46.792ZM147.899 46.648H153.755C155.387 46.648 156.859 46.376 158.171 45.832C159.515 45.256 160.635 44.472 161.531 43.48C162.459 42.456 163.163 41.24 163.643 39.832C164.155 38.424 164.411 36.856 164.411 35.128V29.368C164.411 27.64 164.155 26.072 163.643 24.664C163.163 23.256 162.459 22.056 161.531 21.064C160.635 20.04 159.515 19.256 158.171 18.712C156.859 18.136 155.387 17.848 153.755 17.848H147.899V46.648Z" fill="#E5FAFF"/>
</svg>
