<svg width="55" height="55" viewBox="0 0 55 55" fill="none" xmlns="http://www.w3.org/2000/svg">
<rect width="55" height="55" rx="12" fill="#BB0000"/>
<g clip-path="url(#clip0_17_74)">
<path d="M20.5 7C20.8315 7 21.1495 7.1317 21.3839 7.36612C21.6183 7.60054 21.75 7.91848 21.75 8.25V12H24.25V8.25C24.25 7.91848 24.3817 7.60054 24.6161 7.36612C24.8505 7.1317 25.1685 7 25.5 7C25.8315 7 26.1495 7.1317 26.3839 7.36612C26.6183 7.60054 26.75 7.91848 26.75 8.25V12H29.25V8.25C29.25 7.91848 29.3817 7.60054 29.6161 7.36612C29.8505 7.1317 30.1685 7 30.5 7C30.8315 7 31.1495 7.1317 31.3839 7.36612C31.6183 7.60054 31.75 7.91848 31.75 8.25V12H34.25V8.25C34.25 7.91848 34.3817 7.60054 34.6161 7.36612C34.8505 7.1317 35.1685 7 35.5 7C35.8315 7 36.1495 7.1317 36.3839 7.36612C36.6183 7.60054 36.75 7.91848 36.75 8.25V12C38.4076 12 39.9973 12.6585 41.1694 13.8306C42.3415 15.0027 43 16.5924 43 18.25H46.75C47.0815 18.25 47.3995 18.3817 47.6339 18.6161C47.8683 18.8505 48 19.1685 48 19.5C48 19.8315 47.8683 20.1495 47.6339 20.3839C47.3995 20.6183 47.0815 20.75 46.75 20.75H43V23.25H46.75C47.0815 23.25 47.3995 23.3817 47.6339 23.6161C47.8683 23.8505 48 24.1685 48 24.5C48 24.8315 47.8683 25.1495 47.6339 25.3839C47.3995 25.6183 47.0815 25.75 46.75 25.75H43V28.25H46.75C47.0815 28.25 47.3995 28.3817 47.6339 28.6161C47.8683 28.8505 48 29.1685 48 29.5C48 29.8315 47.8683 30.1495 47.6339 30.3839C47.3995 30.6183 47.0815 30.75 46.75 30.75H43V33.25H46.75C47.0815 33.25 47.3995 33.3817 47.6339 33.6161C47.8683 33.8505 48 34.1685 48 34.5C48 34.8315 47.8683 35.1495 47.6339 35.3839C47.3995 35.6183 47.0815 35.75 46.75 35.75H43C43 37.4076 42.3415 38.9973 41.1694 40.1694C39.9973 41.3415 38.4076 42 36.75 42V45.75C36.75 46.0815 36.6183 46.3995 36.3839 46.6339C36.1495 46.8683 35.8315 47 35.5 47C35.1685 47 34.8505 46.8683 34.6161 46.6339C34.3817 46.3995 34.25 46.0815 34.25 45.75V42H31.75V45.75C31.75 46.0815 31.6183 46.3995 31.3839 46.6339C31.1495 46.8683 30.8315 47 30.5 47C30.1685 47 29.8505 46.8683 29.6161 46.6339C29.3817 46.3995 29.25 46.0815 29.25 45.75V42H26.75V45.75C26.75 46.0815 26.6183 46.3995 26.3839 46.6339C26.1495 46.8683 25.8315 47 25.5 47C25.1685 47 24.8505 46.8683 24.6161 46.6339C24.3817 46.3995 24.25 46.0815 24.25 45.75V42H21.75V45.75C21.75 46.0815 21.6183 46.3995 21.3839 46.6339C21.1495 46.8683 20.8315 47 20.5 47C20.1685 47 19.8505 46.8683 19.6161 46.6339C19.3817 46.3995 19.25 46.0815 19.25 45.75V42C17.5924 42 16.0027 41.3415 14.8306 40.1694C13.6585 38.9973 13 37.4076 13 35.75H9.25C8.91848 35.75 8.60054 35.6183 8.36612 35.3839C8.1317 35.1495 8 34.8315 8 34.5C8 34.1685 8.1317 33.8505 8.36612 33.6161C8.60054 33.3817 8.91848 33.25 9.25 33.25H13V30.75H9.25C8.91848 30.75 8.60054 30.6183 8.36612 30.3839C8.1317 30.1495 8 29.8315 8 29.5C8 29.1685 8.1317 28.8505 8.36612 28.6161C8.60054 28.3817 8.91848 28.25 9.25 28.25H13V25.75H9.25C8.91848 25.75 8.60054 25.6183 8.36612 25.3839C8.1317 25.1495 8 24.8315 8 24.5C8 24.1685 8.1317 23.8505 8.36612 23.6161C8.60054 23.3817 8.91848 23.25 9.25 23.25H13V20.75H9.25C8.91848 20.75 8.60054 20.6183 8.36612 20.3839C8.1317 20.1495 8 19.8315 8 19.5C8 19.1685 8.1317 18.8505 8.36612 18.6161C8.60054 18.3817 8.91848 18.25 9.25 18.25H13C13 16.5924 13.6585 15.0027 14.8306 13.8306C16.0027 12.6585 17.5924 12 19.25 12V8.25C19.25 7.91848 19.3817 7.60054 19.6161 7.36612C19.8505 7.1317 20.1685 7 20.5 7ZM19.25 14.5C18.2554 14.5 17.3016 14.8951 16.5983 15.5983C15.8951 16.3016 15.5 17.2554 15.5 18.25V35.75C15.5 36.7446 15.8951 37.6984 16.5983 38.4017C17.3016 39.1049 18.2554 39.5 19.25 39.5H36.75C37.7446 39.5 38.6984 39.1049 39.4017 38.4017C40.1049 37.6984 40.5 36.7446 40.5 35.75V18.25C40.5 17.2554 40.1049 16.3016 39.4017 15.5983C38.6984 14.8951 37.7446 14.5 36.75 14.5H19.25ZM20.5 23.25C20.5 22.2554 20.8951 21.3016 21.5983 20.5983C22.3016 19.8951 23.2554 19.5 24.25 19.5H31.75C32.7446 19.5 33.6984 19.8951 34.4017 20.5983C35.1049 21.3016 35.5 22.2554 35.5 23.25V30.75C35.5 31.7446 35.1049 32.6984 34.4017 33.4017C33.6984 34.1049 32.7446 34.5 31.75 34.5H24.25C23.2554 34.5 22.3016 34.1049 21.5983 33.4017C20.8951 32.6984 20.5 31.7446 20.5 30.75V23.25ZM24.25 22C23.9185 22 23.6005 22.1317 23.3661 22.3661C23.1317 22.6005 23 22.9185 23 23.25V30.75C23 31.0815 23.1317 31.3995 23.3661 31.6339C23.6005 31.8683 23.9185 32 24.25 32H31.75C32.0815 32 32.3995 31.8683 32.6339 31.6339C32.8683 31.3995 33 31.0815 33 30.75V23.25C33 22.9185 32.8683 22.6005 32.6339 22.3661C32.3995 22.1317 32.0815 22 31.75 22H24.25Z" fill="#E5FAFF"/>
</g>
<defs>
<clipPath id="clip0_17_74">
<rect width="40" height="40" fill="white" transform="translate(8 7)"/>
</clipPath>
</defs>
</svg>
