<svg width="55" height="55" viewBox="0 0 55 55" fill="none" xmlns="http://www.w3.org/2000/svg">
<rect width="55" height="55" rx="12" fill="#BB0000"/>
<path d="M47 27C47 27 39.5 13.25 27 13.25C14.5 13.25 7 27 7 27C7 27 14.5 40.75 27 40.75C39.5 40.75 47 27 47 27ZM9.9325 27C11.1395 25.1615 12.5299 23.4502 14.0825 21.8925C17.3 18.67 21.7 15.75 27 15.75C32.3 15.75 36.6975 18.67 39.92 21.8925C41.4726 23.4502 42.863 25.1615 44.07 27C43.9267 27.2167 43.7642 27.4567 43.5825 27.72C42.745 28.92 41.5075 30.52 39.92 32.1075C36.6975 35.33 32.2975 38.25 27 38.25C21.7025 38.25 17.3025 35.33 14.08 32.1075C12.5274 30.5498 11.1395 28.8385 9.9325 27Z" fill="#E5FAFF"/>
<path d="M27 20.75C25.3424 20.75 23.7527 21.4085 22.5806 22.5806C21.4085 23.7527 20.75 25.3424 20.75 27C20.75 28.6576 21.4085 30.2473 22.5806 31.4194C23.7527 32.5915 25.3424 33.25 27 33.25C28.6576 33.25 30.2473 32.5915 31.4194 31.4194C32.5915 30.2473 33.25 28.6576 33.25 27C33.25 25.3424 32.5915 23.7527 31.4194 22.5806C30.2473 21.4085 28.6576 20.75 27 20.75ZM18.25 27C18.25 24.6794 19.1719 22.4538 20.8128 20.8128C22.4538 19.1719 24.6794 18.25 27 18.25C29.3206 18.25 31.5462 19.1719 33.1872 20.8128C34.8281 22.4538 35.75 24.6794 35.75 27C35.75 29.3206 34.8281 31.5462 33.1872 33.1872C31.5462 34.8281 29.3206 35.75 27 35.75C24.6794 35.75 22.4538 34.8281 20.8128 33.1872C19.1719 31.5462 18.25 29.3206 18.25 27Z" fill="#E5FAFF"/>
</svg>
