<svg width="55" height="55" viewBox="0 0 55 55" fill="none" xmlns="http://www.w3.org/2000/svg">
<rect width="55" height="55" rx="12" fill="#BB0000"/>
<path d="M38.0985 7.815C38.665 7.67676 39.2563 7.66625 39.8275 7.78426C40.3988 7.90227 40.935 8.14571 41.3954 8.49609C41.8558 8.84647 42.2283 9.29458 42.4847 9.80641C42.7411 10.3182 42.8745 10.8803 42.875 11.45V14.5H44.1562C45.1757 14.5 46.1534 14.8951 46.8742 15.5984C47.595 16.3016 48 17.2554 48 18.25V40.75C48 41.7446 47.595 42.6984 46.8742 43.4017C46.1534 44.1049 45.1757 44.5 44.1562 44.5H10.8438C9.82432 44.5 8.84665 44.1049 8.12581 43.4017C7.40497 42.6984 7 41.7446 7 40.75V18.25C6.99964 17.2846 7.3809 16.3563 8.0644 15.6583C8.74791 14.9602 9.68102 14.5463 10.6695 14.5025L38.0985 7.815ZM21.2526 14.5H40.3125V11.45C40.3121 11.2603 40.2674 11.0733 40.1819 10.9029C40.0963 10.7326 39.9722 10.5835 39.8189 10.4669C39.6655 10.3503 39.487 10.2693 39.2968 10.23C39.1067 10.1907 38.9098 10.1941 38.7212 10.24L21.2526 14.5ZM10.8438 17C10.5039 17 10.1781 17.1317 9.93777 17.3661C9.69749 17.6005 9.5625 17.9185 9.5625 18.25V40.75C9.5625 41.0815 9.69749 41.3995 9.93777 41.6339C10.1781 41.8683 10.5039 42 10.8438 42H44.1562C44.4961 42 44.8219 41.8683 45.0622 41.6339C45.3025 41.3995 45.4375 41.0815 45.4375 40.75V18.25C45.4375 17.9185 45.3025 17.6005 45.0622 17.3661C44.8219 17.1317 44.4961 17 44.1562 17H10.8438Z" fill="#E5FAFF"/>
</svg>
